# xmcd CD database file
#
# Track frame offsets:
#	150
#	14631
#	29029
#	50279
#	64266
#	80105
#	96974
#	111278
#	125743
#	150235
#	165632
#
# Disc length: 2464 seconds
#
# Revision: 0
# Processed by: cddbd v1.5.1PL2 Copyright (c) Steve Scherf et al.
# Submitted via: CDex 1.51
#
DISCID=95099e0b
DTITLE=Lowell Fulson - Think Twice Before You Speak
DYEAR=1900
DGENRE=Blues
TTITLE0=Parachute Woman
TTITLE1=I'm Tough
TTITLE2=Think Twice Before You Speak
TTITLE3=Well Oh Well
TTITLE4=One Room County Shack
TTITLE5=Meet Me In The Bottom
TTITLE6=Come On
TTITLE7=You're Gonna Miss Me
TTITLE8=Lowell's Jump
TTITLE9=Come Back Baby
TTITLE10=Sinner's Prayer
EXTD=
EXTT0=
EXTT1=
EXTT2=
EXTT3=
EXTT4=
EXTT5=
EXTT6=
EXTT7=
EXTT8=
EXTT9=
EXTT10=
PLAYORDER=
